<svg width="40" height="36" viewBox="0 0 40 36" fill="none" xmlns="http://www.w3.org/2000/svg">
<path d="M34.4421 22.6324L29.3418 26.422C28.8444 26.7795 28.2991 27.0512 27.7286 27.235C28.0316 26.3525 27.9801 25.4065 27.5788 24.5602C27.1639 23.6851 26.4319 23.0343 25.5151 22.7268L15.3344 19.338C12.2704 18.3102 8.14859 18.7547 5.39687 21.2221H1.17187C0.524687 21.2221 0 21.75 0 22.4011V34.1911C0 34.8422 0.524687 35.3701 1.17187 35.3701H5.85937C6.50656 35.3701 7.03124 34.8422 7.03124 34.1911V33.31L16.2226 35.4114C17.8988 35.7975 19.6167 36.0001 21.2064 36.0001C21.279 36.0001 21.3515 35.9997 21.4236 35.9988C25.8714 35.9464 30.1672 34.5213 33.8465 31.8775L38.5287 28.3885C40.1679 27.2106 40.4892 24.8837 39.2306 23.3009C38.0645 21.8344 35.9611 21.5408 34.4421 22.6324ZM4.6875 33.0121H2.34375V23.5801H4.6875V33.0121ZM37.1665 26.4697L32.4842 29.9587C29.1967 32.321 25.3626 33.5943 21.3962 33.641C19.9293 33.6582 18.3207 33.4756 16.7438 33.1125L7.03124 30.892V22.9156C9.55624 20.7107 13.0421 21.0547 14.5957 21.5758L24.7765 24.9646C25.0812 25.0668 25.3251 25.2838 25.4634 25.5754C25.6018 25.8671 25.6158 26.1944 25.503 26.4969C25.2807 27.0934 24.6358 27.4029 24.0353 27.2014C24.0341 27.201 24.033 27.2009 24.0319 27.2005L16.8516 24.8185C16.2369 24.6146 15.5744 24.9507 15.3717 25.569C15.169 26.1874 15.503 26.854 16.1176 27.0579L23.342 29.4545C25.8234 30.2867 28.5756 29.8703 30.704 28.3407L35.8043 24.5511C36.3107 24.1873 37.0117 24.2852 37.4004 24.774C37.8192 25.3006 37.7161 26.0747 37.1665 26.4697Z" fill="#333333"/>
<path d="M31.7122 10.0526C31.0867 9.71678 30.3649 9.58206 29.6668 9.45174C29.144 9.35412 28.6033 9.25328 28.2975 9.08908C28.1416 9.0053 28.1416 8.9836 28.1416 8.84244C28.1416 8.75889 28.2768 8.6064 28.5352 8.4764C29.175 8.15461 30.0774 8.18094 30.5468 8.53519C31.0647 8.92591 31.7991 8.82027 32.1875 8.29939C32.5758 7.77851 32.4709 7.03952 31.9531 6.6488C31.5677 6.35798 31.1128 6.15017 30.625 6.02653V5.73783C30.625 5.08671 30.1003 4.55884 29.4531 4.55884C28.8059 4.55884 28.2812 5.08671 28.2812 5.73783V6.0619C28.0082 6.13806 27.7415 6.23938 27.4871 6.36741C26.4136 6.90739 25.7979 7.80956 25.7979 8.84252C25.7979 9.87429 26.2807 10.6789 27.194 11.1694C27.8195 11.5052 28.5413 11.64 29.2393 11.7703C29.7622 11.8679 30.3028 11.9687 30.6086 12.1329C30.7646 12.2166 30.7646 12.2384 30.7646 12.3795C30.7646 12.4603 30.6259 12.6158 30.3689 12.7451C29.7296 13.0668 28.8281 13.0405 28.3593 12.6868C27.8416 12.2961 27.1071 12.4018 26.7187 12.9226C26.3304 13.4436 26.4354 14.1826 26.9531 14.5732C27.3385 14.864 27.7934 15.0717 28.2812 15.1952V15.4842C28.2812 16.1353 28.8059 16.6632 29.4531 16.6632C30.1003 16.6632 30.625 16.1353 30.625 15.4842V15.1584C30.8972 15.0823 31.1633 14.9819 31.4171 14.8541C32.4919 14.3134 33.1083 13.4115 33.1083 12.3794C33.1083 11.3476 32.6255 10.5431 31.7122 10.0526Z" fill="#333333"/>
<path d="M29.4531 21.2219C35.2687 21.2219 40 16.4618 40 10.6109C40 4.76007 35.2687 0 29.4531 0C23.6376 0 18.9062 4.76007 18.9062 10.6109C18.9062 16.4618 23.6376 21.2219 29.4531 21.2219ZM29.4531 2.35799C33.9763 2.35799 37.6562 6.06026 37.6562 10.6109C37.6562 15.1616 33.9763 18.8639 29.4531 18.8639C24.9299 18.8639 21.25 15.1616 21.25 10.6109C21.25 6.06026 24.9299 2.35799 29.4531 2.35799Z" fill="#333333"/>
</svg>
