<svg width="40" height="40" viewBox="0 0 40 40" fill="none" xmlns="http://www.w3.org/2000/svg">
<g clip-path="url(#clip0)">
<path d="M19.9978 12.5L19.9941 21.2452C19.9941 21.5772 20.1259 21.8946 20.3604 22.1289L26.6165 28.3838L28.384 26.6162L22.4941 20.7275L22.4977 12.5H19.9978Z" fill="#333333"/>
<path d="M22.5 2.5C13.7014 2.5 6.41939 9.03443 5.19979 17.5H0L6.25 23.75L12.5 17.5H7.7258C8.92167 10.4172 15.082 5.00003 22.5 5.00003C30.7715 5.00003 37.5 11.7285 37.5 20C37.5 28.2716 30.7715 35.0001 22.5 35.0001C17.8504 35.0001 13.5389 32.8956 10.6714 29.2261L8.70118 30.7642C12.0459 35.044 17.0752 37.5 22.5 37.5C32.1497 37.5 40 29.6484 40 20C40 10.3516 32.1497 2.50007 22.5 2.5Z" fill="#333333"/>
</g>
<defs>
<clipPath id="clip0">
<rect width="40" height="40" fill="white"/>
</clipPath>
</defs>
</svg>
