<svg width="40" height="39" viewBox="0 0 40 39" fill="none" xmlns="http://www.w3.org/2000/svg">
<path d="M38.6957 20.4349H13.4782C12.7582 20.4349 12.1738 19.8505 12.1738 19.1305C12.1738 18.4105 12.7582 17.8262 13.4782 17.8262H38.6957C39.4157 17.8262 40.0001 18.4105 40.0001 19.1305C40.0001 19.8505 39.4157 20.4349 38.6957 20.4349Z" fill="#333333"/>
<path d="M20.4352 27.3914C20.1012 27.3914 19.7675 27.2647 19.5133 27.009L12.5569 20.0526C12.0474 19.5427 12.0474 18.7167 12.5569 18.2072L19.5133 11.2508C20.0228 10.7413 20.8489 10.7413 21.3587 11.2508C21.8682 11.7603 21.8682 12.5863 21.3587 13.0958L15.3239 19.1307L21.3587 25.1655C21.8682 25.675 21.8682 26.501 21.3587 27.0105C21.103 27.2647 20.769 27.3914 20.4352 27.3914Z" fill="#333333"/>
<path d="M19.1305 38.261C8.58269 38.261 0 29.6783 0 19.1305C0 8.58269 8.58269 0 19.1305 0C27.0451 0 34.033 4.76168 36.9356 12.1324C37.1999 12.8017 36.8694 13.5584 36.2 13.8243C35.5303 14.0854 34.7737 13.7599 34.5078 13.0871C32.0017 6.7217 25.9652 2.60869 19.1305 2.60869C10.0208 2.60869 2.60869 10.0211 2.60869 19.1305C2.60869 28.2399 10.0208 35.6523 19.1305 35.6523C25.9652 35.6523 32.0017 31.5393 34.5078 25.1758C34.7721 24.5026 35.5287 24.1775 36.2 24.4383C36.8694 24.7026 37.1999 25.4608 36.9356 26.1305C34.033 33.4993 27.0451 38.261 19.1305 38.261Z" fill="#333333"/>
</svg>
