<svg width="40" height="40" viewBox="0 0 40 40" fill="none" xmlns="http://www.w3.org/2000/svg">
<g clip-path="url(#clip0)">
<path d="M38.1641 19.6876H34.2578V17.9375C34.2578 15.7905 32.7595 13.9835 30.7422 13.4823V1.17188C30.7422 0.524687 30.2175 0 29.5703 0H1.83594C1.18875 0 0.664062 0.524687 0.664062 1.17188V33.2812C0.664062 33.9284 1.18875 34.4531 1.83594 34.4531H19.8828V35.4134C19.8828 37.9425 21.9436 40 24.4766 40H34.7422C37.2752 40 39.3359 37.9425 39.3359 35.4134V20.8595C39.3359 20.2123 38.8112 19.6876 38.1641 19.6876ZM31.9141 17.9375V19.6876H27.3047V17.9375C27.3047 16.6969 28.3385 15.6875 29.6094 15.6875C30.8802 15.6875 31.9141 16.6968 31.9141 17.9375ZM3.00781 32.1094V2.34375H28.3984V13.5028C26.4207 14.0308 24.9609 15.8184 24.9609 17.9374V19.6875H21.0547C20.4075 19.6875 19.8828 20.2122 19.8828 20.8594V32.1094H3.00781ZM36.9922 35.4134C36.9922 36.6502 35.9828 37.6562 34.7422 37.6562H24.4766C23.2359 37.6562 22.2266 36.6502 22.2266 35.4134V22.0313H24.9609V25.1172C24.9609 25.7644 25.4856 26.2891 26.1328 26.2891C26.78 26.2891 27.3047 25.7644 27.3047 25.1172V22.0313H31.9141V25.1172C31.9141 25.7644 32.4387 26.2891 33.0859 26.2891C33.7331 26.2891 34.2578 25.7644 34.2578 25.1172V22.0313H36.9922V35.4134Z" fill="#333333"/>
<path d="M8.85797 5.06083L7.52609 6.49153L7.43695 6.38067C7.03148 5.87622 6.29382 5.79583 5.78937 6.20138C5.28491 6.60677 5.2046 7.34442 5.60999 7.84888L6.54749 9.01536C6.7607 9.28052 7.07843 9.44005 7.41835 9.45239C7.43265 9.45286 7.44679 9.45317 7.46101 9.45317C7.78562 9.45317 8.09656 9.31833 8.31867 9.07982L10.5733 6.65794C11.0144 6.18427 10.9878 5.4427 10.5141 5.00169C10.0406 4.56067 9.29898 4.58716 8.85797 5.06083Z" fill="#333333"/>
<path d="M14.4141 8.24219H24.8827C25.5299 8.24219 26.0546 7.7175 26.0546 7.07031C26.0546 6.42312 25.5299 5.89844 24.8827 5.89844H14.4141C13.7669 5.89844 13.2422 6.42312 13.2422 7.07031C13.2422 7.7175 13.7669 8.24219 14.4141 8.24219Z" fill="#333333"/>
<path d="M8.85797 12.1702L7.52609 13.6009L7.43695 13.49C7.03148 12.9856 6.29382 12.9053 5.78937 13.3108C5.28491 13.7162 5.2046 14.4538 5.60999 14.9583L6.54749 16.1247C6.7607 16.3899 7.07843 16.5494 7.41835 16.5618C7.43265 16.5622 7.44679 16.5626 7.46101 16.5626C7.78562 16.5626 8.09656 16.4277 8.31867 16.1892L10.5733 13.7673C11.0144 13.2936 10.9878 12.5521 10.5141 12.1111C10.0406 11.67 9.29898 11.6965 8.85797 12.1702Z" fill="#333333"/>
<path d="M14.4141 15.3516H20.9764C21.6236 15.3516 22.1483 14.8269 22.1483 14.1797C22.1483 13.5325 21.6236 13.0078 20.9764 13.0078H14.4141C13.7669 13.0078 13.2422 13.5325 13.2422 14.1797C13.2422 14.8269 13.7669 15.3516 14.4141 15.3516Z" fill="#333333"/>
<path d="M8.85797 19.2796L7.52609 20.7103L7.43695 20.5994C7.03148 20.0949 6.29382 20.0147 5.78937 20.4201C5.28491 20.8255 5.2046 21.5632 5.60999 22.0676L6.54749 23.2341C6.7607 23.4993 7.07843 23.6588 7.41835 23.6711C7.43265 23.6716 7.44679 23.6719 7.46101 23.6719C7.78562 23.6719 8.09656 23.5371 8.31867 23.2986L10.5733 20.8767C11.0144 20.403 10.9878 19.6615 10.5141 19.2204C10.0406 18.7794 9.29898 18.8059 8.85797 19.2796Z" fill="#333333"/>
<path d="M16.367 20.1172H14.4141C13.7669 20.1172 13.2422 20.6419 13.2422 21.2891C13.2422 21.9362 13.7669 22.4609 14.4141 22.4609H16.367C17.0141 22.4609 17.5388 21.9362 17.5388 21.2891C17.5388 20.6419 17.0141 20.1172 16.367 20.1172Z" fill="#333333"/>
</g>
<defs>
<clipPath id="clip0">
<rect width="40" height="40" fill="white"/>
</clipPath>
</defs>
</svg>
