<svg width="26" height="25" viewBox="0 0 26 25" fill="none" xmlns="http://www.w3.org/2000/svg">
<g clip-path="url(#clip0)">
<path d="M24.7218 3.04218L22.4564 0.776555C21.4212 -0.258551 19.7372 -0.258502 18.7021 0.776555C17.7275 1.75121 2.84198 16.6379 1.84721 17.6327C1.74125 17.7386 1.67026 17.8795 1.64496 18.0172L0.512252 24.1344C0.468355 24.3715 0.543941 24.6151 0.714497 24.7857C0.885249 24.9564 1.1289 25.0319 1.36577 24.988L7.4824 23.8551C7.62376 23.8288 7.76273 23.7571 7.86692 23.6528L24.7218 6.79671C25.7593 5.75921 25.7594 4.07982 24.7218 3.04218ZM2.14653 23.3535L2.83173 19.6531L5.84667 22.6683L2.14653 23.3535ZM7.34905 22.0991L3.40087 18.1506L17.8154 3.735L21.7636 7.68348L7.34905 22.0991ZM23.686 5.76092L22.7993 6.64769L18.8511 2.69921L19.7378 1.81244C20.2017 1.34848 20.9565 1.34843 21.4206 1.81244L23.686 4.07806C24.1511 4.54315 24.1511 5.29578 23.686 5.76092Z" fill="#333333"/>
</g>
<defs>
<clipPath id="clip0">
<rect width="25" height="25" fill="white" transform="translate(0.5)"/>
</clipPath>
</defs>
</svg>

