<svg width="40" height="40" viewBox="0 0 40 40" fill="none" xmlns="http://www.w3.org/2000/svg">
<g clip-path="url(#clip0)">
<path d="M36.8986 20.7345V2.51968C36.8986 1.86985 36.3718 1.34302 35.722 1.34302H4.19674C3.54691 1.34302 3.02008 1.86985 3.02008 2.51968V22.1866C2.45246 22.2693 1.89755 22.4896 1.40664 22.8541C-0.140899 23.9514 -0.506918 26.4072 0.789368 27.9217L6.08928 34.3468C9.36996 38.1864 12.855 38.6569 18.0359 38.6569C22.4819 38.6569 24.4696 38.6765 28.3443 37.7936L32.1173 36.8912C32.7291 37.7455 33.7003 38.2989 34.7922 38.2989H36.6508C38.4975 38.2989 40 36.7162 40 34.7707V24.2522C40.0001 22.3946 38.63 20.8687 36.8986 20.7345ZM31.6098 23.155L30.042 22.3587C27.4642 21.0576 24.4839 21.0094 21.8655 22.2268C21.1511 22.5078 19.5929 23.4505 18.7847 23.419H13.3445C11.54 23.419 10.0718 24.887 10.0718 26.6916V27.5497C10.0617 27.5391 10.0511 27.529 10.0411 27.5181L6.15619 23.3012C5.9211 23.046 5.65697 22.8325 5.37348 22.6612V10.9872H15.0027V15.3006C15.0027 15.9504 15.5295 16.4772 16.1794 16.4772H23.6042C24.254 16.4772 24.7808 15.9504 24.7808 15.3006V10.9872H34.5454V20.7344C33.1706 20.8407 32.0242 21.8242 31.6098 23.155ZM17.356 10.9872H22.4274V14.1239H17.356V10.9872ZM34.5453 8.63391H24.7808V3.69634H34.5454V8.63391H34.5453ZM22.4275 3.69634V8.63399H17.356V3.69634H22.4275ZM15.0026 3.69634V8.63399H5.3734V3.69634H15.0026ZM27.7982 35.5044C24.2188 36.3242 22.0631 36.2911 18.0781 36.2911C13.2146 36.2911 10.8646 36.2125 7.90479 32.8493L2.60488 26.4241C1.683 25.2237 3.35276 23.8066 4.4254 24.8956L8.31034 29.1126C9.3371 30.196 10.6291 30.7922 12.2216 30.8273H22.9926C23.6425 30.8273 24.1693 30.3005 24.1693 29.6506C24.1693 29.0008 23.6425 28.474 22.9926 28.474H12.425V26.6915C12.425 26.1846 12.8374 25.7721 13.3444 25.7721H18.7847C20.0103 25.8599 21.7793 24.8365 22.8575 24.3606C24.8186 23.4488 27.0508 23.4848 28.9789 24.458L31.4432 25.7097V34.6325L27.7982 35.5044ZM37.6467 34.7706C37.6467 35.4185 37.2 35.9455 36.6509 35.9455H34.7922C34.2431 35.9455 33.7965 35.4185 33.7965 34.7706V24.2522C33.7965 23.6043 34.2432 23.0772 34.7922 23.0772H36.6509C37.2 23.0772 37.6467 23.6042 37.6467 24.2522V34.7706Z" fill="#333333"/>
</g>
<defs>
<clipPath id="clip0">
<rect width="40" height="40" fill="white"/>
</clipPath>
</defs>
</svg>
