<svg width="20" height="21" viewBox="0 0 20 21" fill="none" xmlns="http://www.w3.org/2000/svg">
<mask id="mask0" mask-type="alpha" maskUnits="userSpaceOnUse" x="0" y="0" width="20" height="21">
<path fill-rule="evenodd" clip-rule="evenodd" d="M13.3905 13.0786H14.2939L20 18.7962L18.2962 20.5L12.5786 14.7939V13.8905L12.2699 13.5703C10.9663 14.691 9.27387 15.3656 7.43282 15.3656C3.32762 15.3656 0 12.038 0 7.93282C0 3.82762 3.32762 0.5 7.43282 0.5C11.538 0.5 14.8656 3.82762 14.8656 7.93282C14.8656 9.77387 14.191 11.4663 13.0703 12.7699L13.3905 13.0786ZM2.35303 8.14696C2.35303 11.0764 4.71773 13.4411 7.64714 13.4411C10.5766 13.4411 12.9413 11.0764 12.9413 8.14696C12.9413 5.21755 10.5766 2.85284 7.64714 2.85284C4.71773 2.85284 2.35303 5.21755 2.35303 8.14696Z" fill="white"/>
</mask>
<g mask="url(#mask0)">
<rect x="-3.5293" y="-3.02979" width="28.2353" height="28.2353" fill="#9EA0A5"/>
</g>
</svg>
