<svg width="40" height="40" viewBox="0 0 40 40" fill="none" xmlns="http://www.w3.org/2000/svg">
<path d="M21.2552 40H18.7448C16.7144 40 15.0624 38.3481 15.0624 36.3177V35.4684C14.1992 35.1927 13.3605 34.8445 12.5548 34.4276L11.953 35.0295C10.4952 36.489 8.16016 36.4462 6.74477 35.0289L4.97047 33.2547C3.55258 31.8384 3.5118 29.5041 4.97094 28.0465L5.57234 27.4451C5.15539 26.6394 4.80734 25.8009 4.53148 24.9375H3.68227C1.65195 24.9375 0 23.2856 0 21.2552V18.7448C0 16.7144 1.65195 15.0625 3.68234 15.0625H4.53156C4.80742 14.1992 5.15547 13.3606 5.57242 12.5549L4.97055 11.9531C3.51227 10.4964 3.5525 8.16187 4.97102 6.74492L6.74547 4.97055C8.16414 3.54992 10.4987 3.51445 11.9536 4.97102L12.5549 5.57234C13.3606 5.15547 14.1993 4.80734 15.0625 4.53148V3.68227C15.0625 1.65187 16.7144 0 18.7448 0H21.2552C23.2856 0 24.9375 1.65187 24.9375 3.68227V4.53156C25.8007 4.80734 26.6394 5.15547 27.4451 5.57242L28.047 4.97055C29.5047 3.51102 31.8398 3.55383 33.2552 4.97109L35.0295 6.74531C36.4473 8.16164 36.4881 10.4959 35.029 11.9535L34.4276 12.5549C34.8445 13.3606 35.1926 14.1991 35.4684 15.0625H36.3177C38.348 15.0625 40 16.7144 40 18.7448V21.2552C40 23.2856 38.348 24.9375 36.3177 24.9375H35.4684C35.1926 25.8008 34.8445 26.6394 34.4276 27.4451L35.0295 28.047C36.4877 29.5037 36.4475 31.8382 35.029 33.2552L33.2545 35.0295C31.8359 36.4502 29.5013 36.4856 28.0464 35.0291L27.4451 34.4277C26.6394 34.8446 25.8007 35.1927 24.9375 35.4686V36.3179C24.9375 38.3481 23.2856 40 21.2552 40ZM12.9466 31.9664C14.0659 32.6284 15.2706 33.1284 16.5272 33.4527C17.0447 33.5863 17.4062 34.053 17.4062 34.5874V36.3177C17.4062 37.0558 18.0068 37.6562 18.7448 37.6562H21.2552C21.9933 37.6562 22.5938 37.0558 22.5938 36.3177V34.5874C22.5938 34.053 22.9554 33.5863 23.4729 33.4527C24.7295 33.1284 25.9341 32.6284 27.0534 31.9664C27.514 31.6941 28.1003 31.7681 28.4787 32.1465L29.7043 33.3722C30.2327 33.9012 31.0813 33.889 31.5968 33.3727L33.3723 31.5973C33.8866 31.0837 33.9038 30.2349 33.3728 29.7047L32.1466 28.4785C31.7684 28.1002 31.6943 27.5138 31.9666 27.0534C32.6285 25.9341 33.1285 24.7295 33.4528 23.4728C33.5864 22.9553 34.0531 22.5938 34.5875 22.5938H36.3177C37.0558 22.5938 37.6563 21.9934 37.6563 21.2553V18.7448C37.6563 18.0068 37.0558 17.4063 36.3177 17.4063H34.5875C34.053 17.4063 33.5864 17.0448 33.4528 16.5273C33.1285 15.2707 32.6284 14.066 31.9666 12.9468C31.6943 12.4863 31.7684 11.8999 32.1466 11.5216L33.3723 10.2959C33.9022 9.76672 33.8884 8.91828 33.3728 8.40336L31.5974 6.62797C31.0828 6.11266 30.2341 6.09758 29.7048 6.6275L28.4788 7.85367C28.1005 8.23203 27.5139 8.30609 27.0535 8.03375C25.9342 7.3718 24.7295 6.87172 23.473 6.54742C22.9555 6.41391 22.5939 5.94719 22.5939 5.41273V3.68227C22.5939 2.94422 21.9934 2.34375 21.2553 2.34375H18.7449C18.0069 2.34375 17.4063 2.94422 17.4063 3.68227V5.41258C17.4063 5.94703 17.0448 6.41375 16.5273 6.54727C15.2707 6.87156 14.066 7.37164 12.9467 8.03359C12.4861 8.30586 11.8998 8.2318 11.5215 7.85352L10.2959 6.62781C9.76742 6.09875 8.91875 6.11102 8.40336 6.62727L6.62781 8.40273C6.11359 8.91633 6.09641 9.765 6.62734 10.2953L7.85352 11.5215C8.2318 11.8998 8.30586 12.4862 8.03359 12.9466C7.37164 14.0659 6.87164 15.2705 6.54734 16.5272C6.41375 17.0447 5.94703 17.4062 5.41266 17.4062H3.68234C2.9443 17.4062 2.34375 18.0067 2.34375 18.7448V21.2552C2.34375 21.9933 2.9443 22.5938 3.68234 22.5938H5.41258C5.94703 22.5938 6.41367 22.9553 6.54727 23.4727C6.87156 24.7294 7.37164 25.9341 8.03352 27.0533C8.30578 27.5138 8.23172 28.1002 7.85344 28.4784L6.62773 29.7041C6.09789 30.2334 6.11172 31.0818 6.62727 31.5967L8.40266 33.3721C8.91727 33.8874 9.76602 33.9025 10.2952 33.3726L11.5213 32.1464C11.8001 31.8677 12.38 31.6313 12.9466 31.9664Z" fill="#333333"/>
<path d="M20 28.7031C15.201 28.7031 11.2969 24.7989 11.2969 20C11.2969 15.2011 15.201 11.2969 20 11.2969C24.799 11.2969 28.7031 15.2011 28.7031 20C28.7031 24.7989 24.799 28.7031 20 28.7031ZM20 13.6406C16.4934 13.6406 13.6406 16.4934 13.6406 20C13.6406 23.5066 16.4934 26.3594 20 26.3594C23.5066 26.3594 26.3594 23.5066 26.3594 20C26.3594 16.4934 23.5066 13.6406 20 13.6406Z" fill="#333333"/>
</svg>
