<svg width="26" height="25" viewBox="0 0 26 25" fill="none" xmlns="http://www.w3.org/2000/svg">
<g clip-path="url(#clip0)">
<path d="M17.764 8.61938L15.8071 8.54761L15.3828 20.1337L17.3397 20.2052L17.764 8.61938Z" fill="#333333"/>
<path d="M13.9797 8.5835H12.0215V20.1697H13.9797V8.5835Z" fill="#333333"/>
<path d="M10.6166 20.1333L10.1923 8.54712L8.23535 8.61895L8.65967 20.2051L10.6166 20.1333Z" fill="#333333"/>
<path d="M1.34863 3.75317V5.71138H3.38911L5.00786 24.1066C5.05225 24.6122 5.47559 24.9999 5.98306 24.9999H19.984C20.4916 24.9999 20.9152 24.6119 20.9592 24.1063L22.578 5.71138H24.6515V3.75317H1.34863ZM19.0872 23.0417H6.87964L5.35483 5.71138H20.6124L19.0872 23.0417Z" fill="#333333"/>
<path d="M16.1986 0H9.80176C8.90195 0 8.16992 0.732031 8.16992 1.63184V4.73237H10.1281V1.9582H15.8723V4.73237H17.8305V1.63184C17.8305 0.732031 17.0984 0 16.1986 0Z" fill="#333333"/>
</g>
<defs>
<clipPath id="clip0">
<rect width="25" height="25" fill="white" transform="translate(0.5)"/>
</clipPath>
</defs>
</svg>

