<svg width="40" height="34" viewBox="0 0 40 34" fill="none" xmlns="http://www.w3.org/2000/svg">
<path d="M34.1406 17.533H30.2252C29.6923 17.533 29.1763 17.6058 28.6853 17.7397C27.7167 15.8356 25.7392 14.5273 23.4605 14.5273H16.5395C14.2608 14.5273 12.2833 15.8356 11.3147 17.7397C10.8237 17.6058 10.3077 17.533 9.77484 17.533H5.85938C2.62852 17.533 0 20.1615 0 23.3923V29.6516C0 31.5901 1.57711 33.1672 3.51562 33.1672H36.4844C38.4229 33.1672 40 31.5901 40 29.6516V23.3923C40 20.1615 37.3715 17.533 34.1406 17.533ZM10.6801 20.3869V30.8235H3.51562C2.86945 30.8235 2.34375 30.2978 2.34375 29.6516V23.3924C2.34375 21.4539 3.92086 19.8768 5.85938 19.8768H9.77484C10.093 19.8768 10.401 19.92 10.6943 19.9996C10.6859 20.1278 10.6801 20.2567 10.6801 20.3869ZM26.9762 30.8235H13.0238V20.3868C13.0238 18.4483 14.6009 16.8712 16.5395 16.8712H23.4605C25.3991 16.8712 26.9762 18.4483 26.9762 20.3868V30.8235ZM37.6562 29.6516C37.6562 30.2978 37.1305 30.8235 36.4844 30.8235H29.3199V20.3868C29.3199 20.2566 29.3141 20.1277 29.3057 19.9995C29.599 19.92 29.907 19.8767 30.2252 19.8767H34.1406C36.0791 19.8767 37.6562 21.4538 37.6562 23.3923V29.6516Z" fill="#333333"/>
<path d="M7.81707 6.46704C4.94605 6.46704 2.61035 8.80274 2.61035 11.6738C2.61027 14.5448 4.94605 16.8805 7.81707 16.8805C10.688 16.8805 13.0238 14.5448 13.0238 11.6738C13.0238 8.80274 10.6881 6.46704 7.81707 6.46704ZM7.81699 14.5367C6.23832 14.5367 4.95402 13.2524 4.95402 11.6738C4.95402 10.0951 6.23832 8.81079 7.81699 8.81079C9.39566 8.81079 10.68 10.0951 10.68 11.6738C10.68 13.2524 9.39566 14.5367 7.81699 14.5367Z" fill="#333333"/>
<path d="M20 0C16.1644 0 13.0439 3.12047 13.0439 6.95609C13.0439 10.7917 16.1644 13.9122 20 13.9122C23.8357 13.9122 26.9561 10.7917 26.9561 6.95609C26.9561 3.12055 23.8357 0 20 0ZM20 11.5684C17.4568 11.5684 15.3877 9.49938 15.3877 6.95609C15.3877 4.41289 17.4568 2.34375 20 2.34375C22.5433 2.34375 24.6124 4.41281 24.6124 6.95609C24.6124 9.49938 22.5433 11.5684 20 11.5684Z" fill="#333333"/>
<path d="M32.1833 6.46704C29.3123 6.46704 26.9766 8.80274 26.9766 11.6738C26.9766 14.5448 29.3123 16.8805 32.1833 16.8805C35.0543 16.8805 37.39 14.5448 37.39 11.6738C37.39 8.80274 35.0543 6.46704 32.1833 6.46704ZM32.1833 14.5367C30.6047 14.5367 29.3203 13.2524 29.3203 11.6738C29.3204 10.0951 30.6047 8.81079 32.1833 8.81079C33.762 8.81079 35.0462 10.0951 35.0462 11.6738C35.0462 13.2524 33.762 14.5367 32.1833 14.5367Z" fill="#333333"/>
</svg>
