<svg width="400" height="119" viewBox="0 0 400 119" fill="none" xmlns="http://www.w3.org/2000/svg">
<path fill-rule="evenodd" clip-rule="evenodd" d="M55.7172 7.77713C56.1262 3.94212 53.5358 0.479155 49.882 0.0498625C46.2281 -0.40805 42.9288 2.33942 42.5198 6.17444C42.0289 10.5532 42.7106 15.7906 43.5832 21.1711C46.01 21.9438 48.355 23.06 50.5364 24.3765C52.8814 18.5667 55.1719 12.8142 55.7172 7.77713ZM81.3759 24.6054C79.9307 21.0566 76.0042 19.4539 72.623 20.9707C68.1784 23.0027 63.5702 26.9808 58.9348 31.0734C60.6799 32.8765 62.3159 34.9084 63.7066 37.1121C68.9692 36.4253 74.0137 35.5953 77.9129 33.8209C81.2941 32.2468 82.8484 28.1256 81.3759 24.6054ZM70.169 5.88825C67.2241 3.59868 63.0522 4.22831 60.8708 7.31922C57.5441 12.0128 55.3082 19.0246 52.8814 25.8647C53.6994 26.4371 54.4629 27.0095 55.1991 27.6105C55.7445 28.0684 56.3171 28.5549 56.8897 29.0414C62.4523 24.634 68.233 20.3411 71.5596 15.6475C73.741 12.5566 73.1139 8.17781 70.169 5.88825Z" fill="white"/>
<path d="M57.5168 61.9252C55.4718 64.2434 53.2904 66.3898 50.9726 68.479C47.7278 71.4269 44.4284 74.2888 41.0745 77.0363C37.4752 74.7181 34.8848 73.5447 34.4485 74.1457C34.0668 74.6895 35.5665 76.6929 38.266 79.2972C29.2132 86.3663 19.6423 92.6053 9.36246 97.7282C7.75368 98.5296 6.0631 99.1019 4.39978 99.7316C3.9635 99.9033 3.49995 99.9033 3.30908 99.9319C0.691405 100.247 -0.0993517 99.5026 0.00971816 96.9841C0.336928 89.1423 2.65466 81.7871 5.0542 74.4605C5.70862 72.4572 6.39031 70.4538 7.09926 68.4504C10.7258 70.7686 13.3162 71.9706 13.7525 71.3696C14.2161 70.7114 12.0347 68.0784 8.38083 64.7871C10.9985 57.6895 13.9161 50.7063 17.3518 44.0094C24.2232 49.3612 30.3311 52.8814 31.0128 51.9083C31.6945 50.9353 26.65 45.7551 19.6968 40.3461L19.3969 40.1171C20.5967 37.9706 21.851 35.8242 23.1871 33.7349C24.8504 31.1019 26.8954 28.6979 28.9132 26.3511C31.6127 23.2316 35.103 22.1727 39.0022 23.0885C51.4907 26.0077 60.1618 33.5346 64.2519 46.442C65.0699 49.075 64.3337 51.6508 63.0521 54.0262C62.1796 55.6289 61.2252 57.1457 60.1618 58.5767C53.563 53.511 47.8369 50.2484 47.1824 51.1642C46.5553 52.0801 51.109 56.8023 57.5168 61.9252Z" fill="white"/>
<path d="M137.414 15.261C128.77 15.261 123.153 18.8957 119.745 25.793H119.554V21.5C119.554 18.4091 117.155 15.9192 114.21 15.9192C111.265 15.9192 108.892 18.4091 108.892 21.5V68.9798C108.892 72.0707 111.265 74.5893 114.21 74.5893H114.728C117.673 74.5893 120.072 72.0707 120.072 68.9798V40.7037C120.072 31.4596 125.117 25.3064 133.542 25.3064C141.722 25.3064 145.649 30.2862 145.649 39.1869V68.9798C145.649 72.0707 148.021 74.5893 150.966 74.5893H151.484C154.429 74.5893 156.801 72.0707 156.801 68.9798V36.9832C156.801 23.4748 149.766 15.261 137.414 15.261Z" fill="white"/>
<path d="M191.295 15.1465C175.671 15.1465 165.473 27.1094 165.473 45.4546C165.473 63.8283 175.561 75.2761 191.758 75.2761C201.793 75.2761 210.082 70.6111 213.818 63.3418C215.208 60.6802 213.3 57.3889 210.409 57.3889H207.574C206.156 57.3889 204.929 58.2475 204.192 59.5354C202.038 63.4276 197.512 65.7744 191.977 65.7744C182.815 65.7744 176.734 59.0775 176.734 48.9175V48.2307H212.454C214.581 48.2307 216.326 46.399 216.326 44.1667V44.1094C216.326 26.3367 206.646 15.1465 191.295 15.1465ZM176.789 39.9024C177.416 30.8872 183.224 24.7054 191.268 24.7054C199.393 24.7054 204.901 30.7727 205.147 39.9024H176.789Z" fill="white"/>
<path d="M268.325 54.8704H265.353C263.744 54.8704 262.354 55.9293 261.754 57.5034C259.818 62.6835 255.401 65.4596 249.129 65.4596C240.158 65.4596 234.105 57.8754 234.105 45.2542C234.105 32.9192 240.076 25.0488 249.075 25.0488C255.564 25.0488 259.9 28.4259 261.672 33.234C262.272 34.8367 263.663 35.9529 265.326 35.9529H268.298C270.889 35.9529 272.825 33.2913 271.979 30.7155C269.116 21.8721 260.936 15.1465 248.966 15.1465C233.178 15.1465 222.761 26.995 222.761 45.2542C222.761 63.8283 233.205 75.2761 249.075 75.2761C260.445 75.2761 268.898 69.4377 272.007 60.1936C272.879 57.5892 270.97 54.8704 268.325 54.8704Z" fill="white"/>
<path d="M301.81 65.3737C301.619 65.3451 301.401 65.3165 301.21 65.3165C297.529 64.8586 295.811 62.4545 295.811 57.9327V25.1633H302.11C304.564 25.1633 306.527 23.0741 306.527 20.5269C306.527 17.9798 304.564 15.9192 302.11 15.9192H295.811V8.56397C295.811 6.96128 295.184 5.50168 294.175 4.44276C293.166 3.38383 291.803 2.72559 290.248 2.72559C287.194 2.72559 284.713 5.35858 284.713 8.56397V15.9192H281.386C278.96 15.9192 276.969 17.9798 276.969 20.5269C276.969 23.0741 278.96 25.1633 281.386 25.1633H284.713V59.1347C284.713 70.468 289.021 74.9613 300.201 74.9613C300.228 74.9613 300.256 74.9613 300.256 74.9613C301.537 74.9613 302.71 74.5606 303.691 73.8451C303.719 73.8451 303.746 73.8165 303.746 73.8165C304.891 72.9579 305.655 71.5555 305.655 69.9815C305.655 67.6347 303.991 65.6599 301.81 65.3737Z" fill="white"/>
<path d="M338.076 15.1465C329.35 15.1465 322.151 18.867 318.47 24.6195C317.87 25.5926 317.57 26.6515 317.57 27.6818C317.57 30.5438 319.752 33.2054 322.833 33.2054C324.633 33.2054 326.351 32.2037 327.196 30.5438C328.995 26.995 332.84 24.8199 337.776 24.8199C345.247 24.8199 349.501 28.5118 349.501 35.2088V35.9243C349.501 38.0707 347.919 39.8451 345.874 39.9596L334.422 40.6465C320.624 41.5623 313.071 47.5152 313.071 57.7896C313.071 68.2643 320.788 75.1616 331.968 75.1616C339.575 75.1616 346.528 71.1835 349.61 64.8014H349.855V68.9798C349.855 70.5253 350.455 71.9276 351.409 72.9579C352.391 73.9596 353.727 74.5892 355.2 74.5892C358.144 74.5892 360.517 72.0707 360.517 68.9798V34.3502C360.517 22.7307 351.709 15.1465 338.076 15.1465ZM349.501 52.5522C349.501 60.2509 343.229 65.8317 334.94 65.8317C328.505 65.8317 324.333 62.5976 324.333 57.5606C324.333 52.3805 328.314 49.4041 335.921 48.9175L349.501 47.9445V52.5522Z" fill="white"/>
<path d="M396.101 15.3181C389.502 15.3181 384.376 19.2676 382.603 25.7929H382.412V21.4999C382.412 18.409 380.013 15.9191 377.095 15.9191C374.15 15.9191 371.751 18.409 371.751 21.4999V68.7222C371.751 70.3248 372.378 71.8131 373.387 72.872C374.396 73.9309 375.786 74.5892 377.341 74.5892C380.422 74.5892 382.931 71.9562 382.931 68.7222V39.5875C382.931 31.3164 387.566 25.9646 394.928 25.9646C395.228 25.9646 395.555 25.9646 395.855 25.9932C398.146 26.0791 400 24.1043 400 21.7003V19.4393C400 17.1784 398.255 15.3181 396.101 15.3181Z" fill="white"/>
<path d="M305.655 69.9814C305.655 71.5555 304.891 72.9578 303.746 73.8164C303.746 73.8164 303.719 73.845 303.691 73.845C302.982 74.3602 302.137 74.6464 301.21 74.6464C298.729 74.6464 296.738 72.5571 296.738 69.9814C296.738 67.4056 298.729 65.3164 301.21 65.3164C301.401 65.3164 301.619 65.345 301.81 65.3736C303.991 65.6598 305.655 67.6346 305.655 69.9814Z" fill="white"/>
<path d="M110.498 105.467C110.498 104.018 110.781 102.714 111.346 101.557C111.92 100.399 112.713 99.5059 113.725 98.877C114.745 98.248 115.908 97.9336 117.211 97.9336C119.225 97.9336 120.852 98.6309 122.092 100.025C123.34 101.42 123.965 103.275 123.965 105.59V105.768C123.965 107.208 123.687 108.502 123.131 109.65C122.584 110.79 121.796 111.678 120.766 112.316C119.745 112.954 118.569 113.273 117.238 113.273C115.233 113.273 113.606 112.576 112.357 111.182C111.118 109.787 110.498 107.941 110.498 105.645V105.467ZM113.041 105.768C113.041 107.408 113.419 108.725 114.176 109.719C114.941 110.712 115.962 111.209 117.238 111.209C118.523 111.209 119.544 110.708 120.301 109.705C121.057 108.693 121.436 107.281 121.436 105.467C121.436 103.844 121.048 102.532 120.273 101.529C119.508 100.518 118.487 100.012 117.211 100.012C115.962 100.012 114.955 100.508 114.189 101.502C113.424 102.495 113.041 103.917 113.041 105.768ZM135.029 98.207L135.111 100.066C136.242 98.6445 137.718 97.9336 139.541 97.9336C142.667 97.9336 144.244 99.6973 144.271 103.225V113H141.742V103.211C141.733 102.145 141.487 101.356 141.004 100.846C140.53 100.335 139.787 100.08 138.775 100.08C137.955 100.08 137.235 100.299 136.615 100.736C135.995 101.174 135.512 101.748 135.166 102.459V113H132.637V98.207H135.029ZM156.334 113H153.805V92H156.334V113ZM168.643 113H166.113V98.207H168.643V113ZM165.908 94.2832C165.908 93.873 166.031 93.5267 166.277 93.2441C166.533 92.9616 166.906 92.8203 167.398 92.8203C167.891 92.8203 168.264 92.9616 168.52 93.2441C168.775 93.5267 168.902 93.873 168.902 94.2832C168.902 94.6934 168.775 95.0352 168.52 95.3086C168.264 95.582 167.891 95.7188 167.398 95.7188C166.906 95.7188 166.533 95.582 166.277 95.3086C166.031 95.0352 165.908 94.6934 165.908 94.2832ZM180.596 98.207L180.678 100.066C181.808 98.6445 183.285 97.9336 185.107 97.9336C188.234 97.9336 189.811 99.6973 189.838 103.225V113H187.309V103.211C187.299 102.145 187.053 101.356 186.57 100.846C186.096 100.335 185.354 100.08 184.342 100.08C183.521 100.08 182.801 100.299 182.182 100.736C181.562 101.174 181.079 101.748 180.732 102.459V113H178.203V98.207H180.596ZM205.291 113.273C203.286 113.273 201.654 112.617 200.396 111.305C199.139 109.983 198.51 108.219 198.51 106.014V105.549C198.51 104.081 198.788 102.773 199.344 101.625C199.909 100.467 200.693 99.5651 201.695 98.918C202.707 98.2617 203.801 97.9336 204.977 97.9336C206.9 97.9336 208.395 98.5671 209.461 99.834C210.527 101.101 211.061 102.915 211.061 105.275V106.328H201.039C201.076 107.786 201.499 108.967 202.311 109.869C203.131 110.762 204.17 111.209 205.428 111.209C206.321 111.209 207.077 111.027 207.697 110.662C208.317 110.298 208.859 109.814 209.324 109.213L210.869 110.416C209.63 112.321 207.77 113.273 205.291 113.273ZM204.977 100.012C203.956 100.012 203.099 100.385 202.406 101.133C201.714 101.871 201.285 102.91 201.121 104.25H208.531V104.059C208.458 102.773 208.112 101.78 207.492 101.078C206.872 100.367 206.034 100.012 204.977 100.012ZM231.344 105.48C231.344 103.174 231.877 101.342 232.943 99.9844C234.01 98.6172 235.423 97.9336 237.182 97.9336C238.986 97.9336 240.395 98.5716 241.406 99.8477L241.529 98.207H243.84V112.645C243.84 114.559 243.27 116.067 242.131 117.17C241.001 118.273 239.479 118.824 237.564 118.824C236.498 118.824 235.454 118.596 234.434 118.141C233.413 117.685 232.633 117.061 232.096 116.268L233.408 114.75C234.493 116.09 235.819 116.76 237.387 116.76C238.617 116.76 239.574 116.413 240.258 115.721C240.951 115.028 241.297 114.053 241.297 112.795V111.523C240.285 112.69 238.904 113.273 237.154 113.273C235.423 113.273 234.019 112.576 232.943 111.182C231.877 109.787 231.344 107.887 231.344 105.48ZM233.887 105.768C233.887 107.436 234.229 108.748 234.912 109.705C235.596 110.653 236.553 111.127 237.783 111.127C239.378 111.127 240.549 110.402 241.297 108.953V102.199C240.522 100.786 239.36 100.08 237.811 100.08C236.58 100.08 235.618 100.559 234.926 101.516C234.233 102.473 233.887 103.89 233.887 105.768ZM260.318 100.477C259.936 100.413 259.521 100.381 259.074 100.381C257.415 100.381 256.29 101.087 255.697 102.5V113H253.168V98.207H255.629L255.67 99.916C256.499 98.5944 257.675 97.9336 259.197 97.9336C259.689 97.9336 260.063 97.9974 260.318 98.125V100.477ZM267.213 105.467C267.213 104.018 267.495 102.714 268.061 101.557C268.635 100.399 269.428 99.5059 270.439 98.877C271.46 98.248 272.622 97.9336 273.926 97.9336C275.94 97.9336 277.567 98.6309 278.807 100.025C280.055 101.42 280.68 103.275 280.68 105.59V105.768C280.68 107.208 280.402 108.502 279.846 109.65C279.299 110.79 278.51 111.678 277.48 112.316C276.46 112.954 275.284 113.273 273.953 113.273C271.948 113.273 270.321 112.576 269.072 111.182C267.833 109.787 267.213 107.941 267.213 105.645V105.467ZM269.756 105.768C269.756 107.408 270.134 108.725 270.891 109.719C271.656 110.712 272.677 111.209 273.953 111.209C275.238 111.209 276.259 110.708 277.016 109.705C277.772 108.693 278.15 107.281 278.15 105.467C278.15 103.844 277.763 102.532 276.988 101.529C276.223 100.518 275.202 100.012 273.926 100.012C272.677 100.012 271.67 100.508 270.904 101.502C270.139 102.495 269.756 103.917 269.756 105.768ZM295.285 111.209C296.188 111.209 296.976 110.936 297.65 110.389C298.325 109.842 298.699 109.158 298.771 108.338H301.164C301.118 109.186 300.827 109.992 300.289 110.758C299.751 111.523 299.031 112.134 298.129 112.59C297.236 113.046 296.288 113.273 295.285 113.273C293.271 113.273 291.667 112.604 290.473 111.264C289.288 109.915 288.695 108.074 288.695 105.74V105.316C288.695 103.876 288.96 102.596 289.488 101.475C290.017 100.354 290.773 99.4831 291.758 98.8633C292.751 98.2435 293.923 97.9336 295.271 97.9336C296.93 97.9336 298.307 98.4303 299.4 99.4238C300.503 100.417 301.091 101.707 301.164 103.293H298.771C298.699 102.336 298.334 101.552 297.678 100.941C297.031 100.322 296.229 100.012 295.271 100.012C293.986 100.012 292.988 100.477 292.277 101.406C291.576 102.327 291.225 103.662 291.225 105.412V105.891C291.225 107.595 291.576 108.908 292.277 109.828C292.979 110.749 293.982 111.209 295.285 111.209ZM315.646 113.273C313.641 113.273 312.01 112.617 310.752 111.305C309.494 109.983 308.865 108.219 308.865 106.014V105.549C308.865 104.081 309.143 102.773 309.699 101.625C310.264 100.467 311.048 99.5651 312.051 98.918C313.062 98.2617 314.156 97.9336 315.332 97.9336C317.255 97.9336 318.75 98.5671 319.816 99.834C320.883 101.101 321.416 102.915 321.416 105.275V106.328H311.395C311.431 107.786 311.855 108.967 312.666 109.869C313.486 110.762 314.525 111.209 315.783 111.209C316.676 111.209 317.433 111.027 318.053 110.662C318.673 110.298 319.215 109.814 319.68 109.213L321.225 110.416C319.985 112.321 318.126 113.273 315.646 113.273ZM315.332 100.012C314.311 100.012 313.454 100.385 312.762 101.133C312.069 101.871 311.641 102.91 311.477 104.25H318.887V104.059C318.814 102.773 318.467 101.78 317.848 101.078C317.228 100.367 316.389 100.012 315.332 100.012ZM337.006 100.477C336.623 100.413 336.208 100.381 335.762 100.381C334.103 100.381 332.977 101.087 332.385 102.5V113H329.855V98.207H332.316L332.357 99.916C333.187 98.5944 334.363 97.9336 335.885 97.9336C336.377 97.9336 336.751 97.9974 337.006 98.125V100.477ZM347.592 113H345.062V98.207H347.592V113ZM344.857 94.2832C344.857 93.873 344.98 93.5267 345.227 93.2441C345.482 92.9616 345.855 92.8203 346.348 92.8203C346.84 92.8203 347.214 92.9616 347.469 93.2441C347.724 93.5267 347.852 93.873 347.852 94.2832C347.852 94.6934 347.724 95.0352 347.469 95.3086C347.214 95.582 346.84 95.7188 346.348 95.7188C345.855 95.7188 345.482 95.582 345.227 95.3086C344.98 95.0352 344.857 94.6934 344.857 94.2832ZM363.291 113.273C361.286 113.273 359.654 112.617 358.396 111.305C357.139 109.983 356.51 108.219 356.51 106.014V105.549C356.51 104.081 356.788 102.773 357.344 101.625C357.909 100.467 358.693 99.5651 359.695 98.918C360.707 98.2617 361.801 97.9336 362.977 97.9336C364.9 97.9336 366.395 98.5671 367.461 99.834C368.527 101.101 369.061 102.915 369.061 105.275V106.328H359.039C359.076 107.786 359.499 108.967 360.311 109.869C361.131 110.762 362.17 111.209 363.428 111.209C364.321 111.209 365.077 111.027 365.697 110.662C366.317 110.298 366.859 109.814 367.324 109.213L368.869 110.416C367.63 112.321 365.77 113.273 363.291 113.273ZM362.977 100.012C361.956 100.012 361.099 100.385 360.406 101.133C359.714 101.871 359.285 102.91 359.121 104.25H366.531V104.059C366.458 102.773 366.112 101.78 365.492 101.078C364.872 100.367 364.034 100.012 362.977 100.012ZM380.932 94.625V98.207H383.693V100.162H380.932V109.336C380.932 109.928 381.055 110.375 381.301 110.676C381.547 110.967 381.966 111.113 382.559 111.113C382.85 111.113 383.251 111.059 383.762 110.949V113C383.096 113.182 382.449 113.273 381.82 113.273C380.69 113.273 379.838 112.932 379.264 112.248C378.689 111.564 378.402 110.594 378.402 109.336V100.162H375.709V98.207H378.402V94.625H380.932Z" fill="white"/>
</svg>